<?xml version="1.0" encoding="UTF-8" standalone="no"?>
<!DOCTYPE svg PUBLIC "-//W3C//DTD SVG 1.1//EN" "http://www.w3.org/Graphics/SVG/1.1/DTD/svg11.dtd">
<svg version="1.1" xmlns="http://www.w3.org/2000/svg" xmlns:xlink="http://www.w3.org/1999/xlink" preserveAspectRatio="xMidYMid meet" viewBox="0 0 640 640" width="640" height="640"><defs><path d="M507.87 126.38C513.4 126.38 517.87 130.86 517.87 136.38C517.87 211.83 517.87 428.17 517.87 503.62C517.87 509.14 513.4 513.62 507.87 513.62C431.57 513.62 212.68 513.62 136.38 513.62C130.86 513.62 126.38 509.14 126.38 503.62C126.38 428.17 126.38 211.83 126.38 136.38C126.38 130.86 130.86 126.38 136.38 126.38C212.68 126.38 431.57 126.38 507.87 126.38Z" id="b2TfdgYkv1"></path><path d="M346.67 293.33C346.67 261.33 346.67 243.56 346.67 240C346.67 225.27 334.73 213.33 320 213.33C305.27 213.33 293.33 225.27 293.33 240C293.33 243.56 293.33 261.33 293.33 293.33C261.33 293.33 243.56 293.33 240 293.33C225.27 293.33 213.33 305.27 213.33 320C213.33 334.73 225.27 346.67 240 346.67C243.56 346.67 261.33 346.67 293.33 346.67C293.33 378.67 293.33 396.44 293.33 400C293.33 414.73 305.27 426.67 320 426.67C334.73 426.67 346.67 414.73 346.67 400C346.67 396.44 346.67 378.67 346.67 346.67C378.67 346.67 396.44 346.67 400 346.67C414.73 346.67 426.67 334.73 426.67 320C426.67 305.27 414.73 293.33 400 293.33C392.89 293.33 375.11 293.33 346.67 293.33Z" id="aafYCqbSc"></path><path d="M162.13 80C117.94 80 82.13 115.82 82.13 160C82.13 192 82.13 448 82.13 480C82.13 524.18 117.94 560 162.13 560C194.13 560 450.13 560 482.13 560C526.31 560 562.13 524.18 562.13 480C562.13 448 562.13 192 562.13 160C562.13 115.82 526.31 80 482.13 80C418.13 80 194.13 80 162.13 80ZM508.79 480C508.79 494.73 496.86 506.67 482.13 506.67C450.13 506.67 194.13 506.67 162.13 506.67C147.4 506.67 135.46 494.73 135.46 480C135.46 448 135.46 192 135.46 160C135.46 145.27 147.4 133.33 162.13 133.33C194.13 133.33 450.13 133.33 482.13 133.33C496.86 133.33 508.79 145.27 508.79 160C508.79 224 508.79 416 508.79 480Z" id="a1BxiYMGYA"></path></defs><g><g><g><use xlink:href="#b2TfdgYkv1" opacity="1" fill="#fefefe" fill-opacity="1"></use></g><g><use xlink:href="#aafYCqbSc" opacity="1" fill="#000000" fill-opacity="1"></use><g><use xlink:href="#aafYCqbSc" opacity="1" fill-opacity="0" stroke="#000000" stroke-width="1" stroke-opacity="0"></use></g></g><g><use xlink:href="#a1BxiYMGYA" opacity="1" fill="#f50909" fill-opacity="1"></use><use xlink:href="#a1BxiYMGYA" opacity="1" fill="#000000" fill-opacity="1"></use><g><use xlink:href="#a1BxiYMGYA" opacity="1" fill-opacity="0" stroke="#000000" stroke-width="1" stroke-opacity="0"></use></g></g></g></g></svg>